<svg width="528" height="207" viewBox="0 0 528 207" fill="none" xmlns="http://www.w3.org/2000/svg">
<g clip-path="url(#clip0_22_1194)">
<g clip-path="url(#clip1_22_1194)">
<g clip-path="url(#clip2_22_1194)">
<path d="M179.854 5.8219C179.854 2.90467 177.964 0.539795 175.633 0.539795C173.301 0.539795 171.411 2.90467 171.411 5.8219V201.178C171.411 204.096 173.301 206.46 175.633 206.46C177.964 206.46 179.854 204.096 179.854 201.178V5.8219Z" fill="white"/>
<g clip-path="url(#clip3_22_1194)">
<g clip-path="url(#clip4_22_1194)">
<g clip-path="url(#clip5_22_1194)">
<g clip-path="url(#clip6_22_1194)">
<path d="M225.952 17.3962H201.956V7.17975H261.357V17.3962H237.36V97.3673H225.952V17.3962ZM290.481 97.3673H279.074V7.17975H301.659C307.342 7.17975 312.211 8.31395 316.264 10.5852C320.335 12.8565 323.495 15.8464 325.742 19.5607C327.969 23.275 329.084 27.3327 329.084 31.7396C329.084 36.6834 327.681 41.1191 324.878 45.0441C322.075 48.9893 318.243 51.9041 313.383 53.7887L343.574 97.3673H330.293L301.659 55.8666H290.481V97.3673ZM290.481 17.3962V46.2562H301.659C305.539 46.2562 308.696 45.5434 311.136 44.1206C313.556 42.6776 315.351 40.8392 316.523 38.6083C317.696 36.3572 318.281 34.0686 318.281 31.7396C318.281 27.5261 316.763 24.0831 313.729 21.4077C310.696 18.7324 306.671 17.3962 301.659 17.3962H290.481ZM397.185 99.1855C390.732 99.1855 384.653 97.9647 378.95 95.5203C373.246 93.0759 368.242 89.7194 363.941 85.4482C359.64 81.1769 356.269 76.1927 353.829 70.4987C351.409 64.8219 350.2 58.744 350.2 52.2591C350.2 45.7945 351.409 39.7252 353.829 34.0484C356.269 28.3544 359.64 23.3702 363.941 19.0989C368.242 14.8277 373.246 11.4712 378.95 9.02679C384.653 6.58235 390.732 5.36157 397.185 5.36157C403.733 5.36157 409.84 6.58235 415.506 9.02679C421.173 11.4712 426.157 14.8277 430.458 19.0989C434.758 23.3702 438.129 28.3544 440.569 34.0484C442.989 39.7252 444.199 45.7945 444.199 52.2591C444.199 58.744 442.989 64.8219 440.569 70.4987C438.129 76.1927 434.758 81.1769 430.458 85.4482C426.157 89.7194 421.173 93.0759 415.506 95.5203C409.84 97.9647 403.733 99.1855 397.185 99.1855ZM397.185 88.3342C403.79 88.3342 409.765 86.718 415.103 83.4857C420.441 80.2533 424.659 75.8955 427.75 70.4121C430.861 64.9287 432.416 58.8767 432.416 52.2591C432.416 45.5838 430.861 39.5232 427.75 34.0773C424.659 28.6314 420.441 24.2937 415.103 21.0614C409.765 17.8089 403.79 16.1841 397.185 16.1841C390.596 16.1841 384.653 17.8089 379.353 21.0614C374.052 24.2937 369.826 28.6314 366.677 34.0773C363.546 39.5232 361.982 45.5838 361.982 52.2591C361.982 58.8767 363.546 64.9287 366.677 70.4121C369.826 75.8955 374.052 80.2533 379.353 83.4857C384.653 86.718 390.596 88.3342 397.185 88.3342ZM527.626 97.3673H513.74L475.426 41.7541L506.222 7.17975H519.617L489.023 41.6386L527.626 97.3673ZM474.216 97.3673H462.808V7.17975H474.216V97.3673Z" fill="white"/>
<path d="M229.15 201.033C223.812 201.033 218.99 199.965 214.689 197.829C210.388 195.673 206.968 193.067 204.433 190.008L207.746 176.184C209.61 179.916 212.413 183.284 216.158 186.285C219.883 189.287 224.348 190.787 229.553 190.787C234.298 190.787 238.216 189.287 241.307 186.285C244.398 183.284 245.945 179.581 245.945 175.174C245.945 171.962 245.187 169.324 243.669 167.266C242.134 165.188 240.394 163.543 238.455 162.331C236.516 161.139 234.978 160.274 233.846 159.734L222.841 154.135C221.113 153.191 218.961 151.884 216.388 150.21C213.833 148.536 211.586 146.236 209.647 143.313C207.709 140.369 206.738 136.559 206.738 131.884C206.738 127.344 207.795 123.304 209.907 119.763C212.001 116.222 214.928 113.442 218.693 111.422C222.458 109.422 226.779 108.421 231.656 108.421C236.459 108.421 240.693 109.278 244.36 110.989C248.028 112.683 250.9 114.432 252.974 116.242L249.661 130.066C247.99 127.258 245.521 124.62 242.257 122.158C238.994 119.696 235.295 118.464 231.167 118.464C227.154 118.464 223.944 119.647 221.545 122.014C219.145 124.38 217.944 127.304 217.944 130.787C217.944 133.463 218.557 135.665 219.788 137.396C221.035 139.128 222.438 140.493 223.993 141.494C225.569 142.496 226.854 143.263 227.854 143.803L239.06 149.402C240.385 150.074 242.064 151.018 244.101 152.23C246.138 153.422 248.154 155.009 250.151 156.992C252.147 158.955 253.818 161.359 255.163 164.207C256.488 167.035 257.151 170.461 257.151 174.481C257.151 179.618 255.941 184.187 253.521 188.19C251.081 192.21 247.76 195.356 243.554 197.627C239.348 199.898 234.546 201.033 229.15 201.033ZM291.979 119.849H267.954V109.633H327.384V119.849H303.387V199.82H291.979V119.849ZM385.201 201.639C378.728 201.639 372.641 200.418 366.937 197.973C361.233 195.529 356.229 192.173 351.928 187.901C347.627 183.63 344.265 178.646 341.845 172.952C339.405 167.275 338.187 161.197 338.187 154.712C338.187 148.248 339.405 142.178 341.845 136.502C344.265 130.807 347.627 125.823 351.928 121.552C356.229 117.281 361.233 113.924 366.937 111.48C372.641 109.035 378.728 107.815 385.201 107.815C391.732 107.815 397.827 109.035 403.494 111.48C409.16 113.924 414.144 117.281 418.445 121.552C422.746 125.823 426.116 130.807 428.556 136.502C430.996 142.178 432.215 148.248 432.215 154.712C432.215 161.197 430.996 167.275 428.556 172.952C426.116 178.646 422.746 183.63 418.445 187.901C414.144 192.173 409.16 195.529 403.494 197.973C397.827 200.418 391.732 201.639 385.201 201.639ZM385.201 190.787C391.806 190.787 397.77 189.171 403.09 185.939C408.428 182.706 412.655 178.349 415.766 172.865C418.857 167.382 420.404 161.33 420.404 154.712C420.404 148.037 418.857 141.976 415.766 136.53C412.655 131.085 408.428 126.747 403.09 123.515C397.77 120.262 391.806 118.637 385.201 118.637C378.595 118.637 372.641 120.262 367.34 123.515C362.04 126.747 357.825 131.085 354.694 136.53C351.562 141.976 349.998 148.037 349.998 154.712C349.998 161.33 351.562 167.382 354.694 172.865C357.825 178.349 362.04 182.706 367.34 185.939C372.641 189.171 378.595 190.787 385.201 190.787ZM515.642 199.82H501.728L463.414 144.207L494.238 109.633H507.633L477.011 144.092L515.642 199.82ZM462.204 199.82H450.825V109.633H462.204V199.82Z" fill="white"/>
</g>
</g>
</g>
</g>
<g clip-path="url(#clip7_22_1194)">
<g clip-path="url(#clip8_22_1194)">
<path d="M74.5909 84.9209C69.7385 84.9209 65.085 86.852 61.6538 90.2894C58.2227 93.7267 56.2951 98.3888 56.2951 103.25C56.2951 108.111 58.2227 112.773 61.6538 116.211C65.085 119.648 69.7385 121.579 74.5909 121.579C79.4432 121.579 84.097 119.649 87.5284 116.212C90.9598 112.775 92.8878 108.113 92.8882 103.252C92.8886 98.3903 90.9615 93.7281 87.5306 90.2904C84.0998 86.8528 79.4432 84.9213 74.5909 84.9209ZM74.8422 28.897C33.7174 28.897 0.374512 62.2975 0.374512 103.5C0.374512 144.703 33.7143 178.103 74.8422 178.103C115.97 178.103 149.31 144.703 149.31 103.5C149.31 62.2975 115.973 28.897 74.8422 28.897ZM121.955 114.691H120.506C119.378 119.344 117.54 123.796 115.058 127.889L116.088 128.927C119.942 132.782 119.514 139.456 115.135 143.839C110.773 148.216 104.105 148.648 100.251 144.796L99.2273 143.767C95.1447 146.26 90.7031 148.107 86.0589 149.244V150.715C86.0651 156.167 81.0541 160.587 74.8639 160.587C68.6831 160.587 63.6721 156.167 63.669 150.715V149.257C59.0244 148.124 54.5818 146.281 50.4975 143.792L49.4611 144.83C45.6167 148.685 38.9519 148.262 34.5769 143.87C30.205 139.499 29.7799 132.819 33.6274 128.959L34.6545 127.933C32.1726 123.842 30.33 119.395 29.1904 114.747H27.7259C22.2835 114.747 17.8713 109.726 17.8744 103.528C17.8713 97.3392 22.2835 92.319 27.7259 92.319H29.178C30.3292 87.5942 32.1846 83.1708 34.6328 79.1267L33.5933 78.0823C29.7458 74.2309 30.1678 67.5539 34.5459 63.1709C38.9178 58.7942 45.5795 58.3683 49.427 62.2166L50.4602 63.2486C54.4939 60.7929 58.9154 58.931 63.6224 57.7746V56.3012C63.6224 50.849 68.6366 46.4349 74.8174 46.4349C80.9982 46.4349 86.0093 50.849 86.0093 56.3012V57.7622C90.7287 58.9154 95.1471 60.7712 99.1839 63.2269L100.22 62.1824C104.068 58.3279 110.729 58.7507 115.104 63.1399C119.479 67.5135 119.905 74.1967 116.054 78.0512L115.03 79.077C117.513 83.1693 119.357 87.6182 120.497 92.2693H121.968C127.41 92.2662 131.816 97.2832 131.822 103.485C131.807 109.667 127.401 114.691 121.955 114.691Z" fill="white"/>
</g>
</g>
</g>
</g>
</g>
<defs>
<clipPath id="clip0_22_1194">
<rect width="528" height="207" fill="white"/>
</clipPath>
<clipPath id="clip1_22_1194">
<rect width="527.251" height="205.921" fill="white" transform="translate(0.374512 0.539795)"/>
</clipPath>
<clipPath id="clip2_22_1194">
<rect width="527.251" height="205.921" fill="white" transform="translate(0.374512 0.539795)"/>
</clipPath>
<clipPath id="clip3_22_1194">
<rect width="325.67" height="204.896" fill="white" transform="translate(201.956 1.052)"/>
</clipPath>
<clipPath id="clip4_22_1194">
<rect width="325.67" height="204.896" fill="white" transform="translate(201.956 1.052)"/>
</clipPath>
<clipPath id="clip5_22_1194">
<rect width="325.67" height="204.896" fill="white" transform="translate(201.956 1.052)"/>
</clipPath>
<clipPath id="clip6_22_1194">
<rect width="325.67" height="204.896" fill="white" transform="translate(201.956 1.052)"/>
</clipPath>
<clipPath id="clip7_22_1194">
<rect width="148.935" height="149.206" fill="white" transform="translate(0.374512 28.897)"/>
</clipPath>
<clipPath id="clip8_22_1194">
<rect width="148.935" height="149.206" fill="white" transform="translate(0.374512 28.897)"/>
</clipPath>
</defs>
</svg>
